<?xml version="1.0" encoding="UTF-8" standalone="no"?>
<!DOCTYPE svg PUBLIC "-//W3C//DTD SVG 1.1//EN" "http://www.w3.org/Graphics/SVG/1.1/DTD/svg11.dtd">
<svg width="100%" height="100%" viewBox="0 0 827 827" version="1.1" xmlns="http://www.w3.org/2000/svg" xmlns:xlink="http://www.w3.org/1999/xlink" xml:space="preserve" xmlns:serif="http://www.serif.com/" style="fill-rule:evenodd;clip-rule:evenodd;stroke-linecap:round;stroke-linejoin:round;stroke-miterlimit:1.5;">
    <rect id="Artboard1" x="0" y="0" width="826.772" height="826.772" style="fill:none;"/>
    <clipPath id="_clip1">
        <rect id="Artboard11" serif:id="Artboard1" x="0" y="0" width="826.772" height="826.772"/>
    </clipPath>
    <g clip-path="url(#_clip1)">
        <g transform="matrix(6.42056,0,0,9.5134,-2337.82,-1089.17)">
            <path d="M482,120.437C482,119.644 481.046,119 479.87,119L377.13,119C375.954,119 375,119.644 375,120.437L375,195.445C375,196.239 375.954,196.883 377.13,196.883L479.87,196.883C481.046,196.883 482,196.239 482,195.445L482,120.437Z" style="fill:rgb(0,159,227);"/>
        </g>
        <g transform="matrix(1,0,0,1,16.8858,36.3858)">
            <g transform="matrix(-1,0,0,1,793,176)">
                <path d="M215,284L336,284" style="fill:none;stroke:white;stroke-width:16.67px;"/>
                <path d="M143,325.5L305,325.5" style="fill:none;stroke:white;stroke-width:16.67px;"/>
                <path d="M164,367L283,367" style="fill:none;stroke:white;stroke-width:16.67px;"/>
            </g>
            <g transform="matrix(-1,0,0,1,793,176)">
                <path d="M566,284L566,386L650,386" style="fill:none;stroke:white;stroke-width:16.67px;"/>
                <path d="M215,481L650,481L650,362C650,362 638.415,283.208 562,284C485.585,284.792 511,284 511,284" style="fill:none;stroke:white;stroke-width:16.67px;"/>
                <path d="M305,246L504,249L504,405L215,405" style="fill:none;stroke:white;stroke-width:16.67px;"/>
                <g transform="matrix(0.74,0,0,1.65957,65.98,-279.255)">
                    <ellipse cx="298" cy="457.5" rx="50" ry="23.5" style="fill:rgb(0,159,227);stroke:white;stroke-width:12.97px;"/>
                </g>
                <g transform="matrix(0.74,0,0,1.65957,361.98,-278.255)">
                    <ellipse cx="298" cy="457.5" rx="50" ry="23.5" style="fill:rgb(0,159,227);stroke:white;stroke-width:12.97px;"/>
                </g>
                <g transform="matrix(-0.632912,0,0,0.632912,589.71,133.119)">
                    <path d="M207.18,334.386L197.662,334.386L197.662,345.387C197.662,348.117 197.74,350.614 198.052,353.111C194.307,350.692 189.86,349.678 185.335,349.678C175.66,349.678 170.667,354.437 170.667,369.651C170.667,382.602 174.412,389.936 184.086,389.936C190.406,389.936 195.477,386.971 198.91,383.773L199.69,389L207.18,389L207.18,334.386ZM180.419,369.573C180.419,359.274 182.526,357.402 188.143,357.402C191.576,357.402 194.229,358.182 197.662,358.962L197.662,377.921C193.449,380.73 191.42,381.9 187.597,381.9C182.526,381.9 180.419,379.638 180.419,369.573Z" style="fill-rule:nonzero;"/>
                    <path d="M220.6,334.152C218.805,334.152 217.869,335.166 217.869,336.882L217.869,341.174C217.869,342.968 218.805,343.904 220.6,343.904L224.969,343.904C226.842,343.904 227.7,342.968 227.7,341.174L227.7,336.882C227.7,335.166 226.842,334.152 224.969,334.152L220.6,334.152ZM227.544,389L227.544,350.77L218.103,350.77L218.103,389L227.544,389Z" style="fill-rule:nonzero;"/>
                    <path d="M275.682,355.373L276.228,350.77L264.369,350.77C261.873,349.99 258.596,349.678 254.539,349.678C241.509,349.678 237.218,353.111 237.218,362.083C237.218,367.154 238.701,370.431 242.524,372.382C239.013,374.644 238.076,381.042 241.587,384.241C237.452,386.347 235.58,388.532 235.58,392.589C235.58,401.327 240.105,404.292 254.929,404.292C269.363,404.292 274.2,401.483 274.2,392.043C274.2,385.411 271.235,381.9 263.667,380.886L249.701,378.935C246.659,378.467 246.425,375.737 247.439,373.864C249.467,374.176 251.808,374.332 254.461,374.332C267.49,374.332 271.703,370.665 271.703,362.005C271.703,359.586 271.391,357.636 270.689,355.919L275.682,355.373ZM254.461,367.7C247.985,367.7 245.878,366.218 245.878,362.005C245.878,357.714 247.985,356.388 254.461,356.388C260.936,356.388 262.965,357.714 262.965,362.005C262.965,366.218 260.936,367.7 254.461,367.7ZM265.071,391.653C265.071,395.944 263.121,396.724 254.851,396.724C246.581,396.724 244.708,396.1 244.708,391.575C244.708,389.312 245.8,387.83 247.751,386.191L258.596,387.518C263.745,388.142 265.071,388.376 265.071,391.653Z" style="fill-rule:nonzero;"/>
                    <path d="M285.591,334.152C283.796,334.152 282.86,335.166 282.86,336.882L282.86,341.174C282.86,342.968 283.796,343.904 285.591,343.904L289.96,343.904C291.832,343.904 292.691,342.968 292.691,341.174L292.691,336.882C292.691,335.166 291.832,334.152 289.96,334.152L285.591,334.152ZM292.535,389L292.535,350.77L283.094,350.77L283.094,389L292.535,389Z" style="fill-rule:nonzero;"/>
                    <path d="M313.756,335.166L304.004,335.166L304.004,377.999C304.004,384.475 307.124,389.156 316.097,389.156C323.353,389.156 330.686,389.078 337.474,388.454L337.084,380.886L318.359,380.886C314.926,380.886 313.756,379.716 313.756,376.439L313.756,335.166Z" style="fill-rule:nonzero;"/>
                    <path d="M362.987,349.678C357.916,349.678 349.333,350.536 343.872,351.55L344.808,358.26C350.816,357.792 357.291,357.48 360.802,357.48C366.264,357.48 367.746,358.572 367.824,362.941L367.824,365.282L353.468,365.282C346.291,365.282 342.155,368.793 342.155,374.878L342.155,378.779C342.155,385.957 347.227,389.858 354.249,389.858C361.114,389.858 366.108,386.191 368.838,383.227L369.853,389L377.343,389L377.343,363.019C377.343,352.799 372.427,349.678 362.987,349.678ZM351.596,376.049C351.596,373.474 352.532,371.914 355.653,371.758L367.824,371.758L367.824,377.687C363.845,380.964 359.554,382.212 356.589,382.212C353.156,382.212 351.596,380.808 351.596,377.531L351.596,376.049Z" style="fill-rule:nonzero;"/>
                    <path d="M410.111,349.678C405.04,349.678 400.124,351.94 396.145,356.153C396.848,353.345 397.004,350.536 397.004,347.259L397.004,334.386L387.485,334.386L387.485,387.049C392.4,389 400.749,389.936 406.132,389.936C420.41,389.936 424.077,381.9 424.077,369.651C424.077,355.373 419.63,349.678 410.111,349.678ZM405.898,382.368C403.323,382.446 399.968,382.134 397.004,381.432L396.926,361.927C400.437,359.352 403.089,357.636 406.522,357.636C412.998,357.636 414.246,360.601 414.324,369.651C414.246,379.325 411.984,382.29 405.898,382.368Z" style="fill-rule:nonzero;"/>
                </g>
            </g>
        </g>
        <g transform="matrix(1,0,0,1,25.8858,39.3858)">
            <g>
                <g transform="matrix(1,0,0,1,-9,-200)">
                    <path d="M215,284L336,284" style="fill:none;stroke:black;stroke-width:16.67px;"/>
                    <path d="M143,325.5L305,325.5" style="fill:none;stroke:black;stroke-width:16.67px;"/>
                    <path d="M164,367L283,367" style="fill:none;stroke:black;stroke-width:16.67px;"/>
                </g>
                <g transform="matrix(1,0,0,1,-9,-200)">
                    <path d="M566,284L566,386L650,386" style="fill:none;stroke:black;stroke-width:16.67px;"/>
                    <path d="M215,481L650,481L650,362C650,362 638.415,283.208 562,284C485.585,284.792 511,284 511,284" style="fill:none;stroke:black;stroke-width:16.67px;"/>
                    <path d="M305,246L504,249L504,405L215,405" style="fill:none;stroke:black;stroke-width:16.67px;"/>
                    <g transform="matrix(0.74,0,0,1.65957,65.98,-279.255)">
                        <ellipse cx="298" cy="457.5" rx="50" ry="23.5" style="fill:rgb(0,159,227);stroke:black;stroke-width:12.97px;"/>
                    </g>
                    <g transform="matrix(0.74,0,0,1.65957,361.98,-278.255)">
                        <ellipse cx="298" cy="457.5" rx="50" ry="23.5" style="fill:rgb(0,159,227);stroke:black;stroke-width:12.97px;"/>
                    </g>
                    <g transform="matrix(0.632912,0,0,0.632912,213.29,133.119)">
                        <path d="M207.18,334.386L197.662,334.386L197.662,345.387C197.662,348.117 197.74,350.614 198.052,353.111C194.307,350.692 189.86,349.678 185.335,349.678C175.66,349.678 170.667,354.437 170.667,369.651C170.667,382.602 174.412,389.936 184.086,389.936C190.406,389.936 195.477,386.971 198.91,383.773L199.69,389L207.18,389L207.18,334.386ZM180.419,369.573C180.419,359.274 182.526,357.402 188.143,357.402C191.576,357.402 194.229,358.182 197.662,358.962L197.662,377.921C193.449,380.73 191.42,381.9 187.597,381.9C182.526,381.9 180.419,379.638 180.419,369.573Z" style="fill:white;fill-rule:nonzero;"/>
                        <path d="M220.6,334.152C218.805,334.152 217.869,335.166 217.869,336.882L217.869,341.174C217.869,342.968 218.805,343.904 220.6,343.904L224.969,343.904C226.842,343.904 227.7,342.968 227.7,341.174L227.7,336.882C227.7,335.166 226.842,334.152 224.969,334.152L220.6,334.152ZM227.544,389L227.544,350.77L218.103,350.77L218.103,389L227.544,389Z" style="fill:white;fill-rule:nonzero;"/>
                        <path d="M275.682,355.373L276.228,350.77L264.369,350.77C261.873,349.99 258.596,349.678 254.539,349.678C241.509,349.678 237.218,353.111 237.218,362.083C237.218,367.154 238.701,370.431 242.524,372.382C239.013,374.644 238.076,381.042 241.587,384.241C237.452,386.347 235.58,388.532 235.58,392.589C235.58,401.327 240.105,404.292 254.929,404.292C269.363,404.292 274.2,401.483 274.2,392.043C274.2,385.411 271.235,381.9 263.667,380.886L249.701,378.935C246.659,378.467 246.425,375.737 247.439,373.864C249.467,374.176 251.808,374.332 254.461,374.332C267.49,374.332 271.703,370.665 271.703,362.005C271.703,359.586 271.391,357.636 270.689,355.919L275.682,355.373ZM254.461,367.7C247.985,367.7 245.878,366.218 245.878,362.005C245.878,357.714 247.985,356.388 254.461,356.388C260.936,356.388 262.965,357.714 262.965,362.005C262.965,366.218 260.936,367.7 254.461,367.7ZM265.071,391.653C265.071,395.944 263.121,396.724 254.851,396.724C246.581,396.724 244.708,396.1 244.708,391.575C244.708,389.312 245.8,387.83 247.751,386.191L258.596,387.518C263.745,388.142 265.071,388.376 265.071,391.653Z" style="fill:white;fill-rule:nonzero;"/>
                        <path d="M285.591,334.152C283.796,334.152 282.86,335.166 282.86,336.882L282.86,341.174C282.86,342.968 283.796,343.904 285.591,343.904L289.96,343.904C291.832,343.904 292.691,342.968 292.691,341.174L292.691,336.882C292.691,335.166 291.832,334.152 289.96,334.152L285.591,334.152ZM292.535,389L292.535,350.77L283.094,350.77L283.094,389L292.535,389Z" style="fill:white;fill-rule:nonzero;"/>
                        <path d="M313.756,335.166L304.004,335.166L304.004,377.999C304.004,384.475 307.124,389.156 316.097,389.156C323.353,389.156 330.686,389.078 337.474,388.454L337.084,380.886L318.359,380.886C314.926,380.886 313.756,379.716 313.756,376.439L313.756,335.166Z" style="fill:white;fill-rule:nonzero;"/>
                        <path d="M362.987,349.678C357.916,349.678 349.333,350.536 343.872,351.55L344.808,358.26C350.816,357.792 357.291,357.48 360.802,357.48C366.264,357.48 367.746,358.572 367.824,362.941L367.824,365.282L353.468,365.282C346.291,365.282 342.155,368.793 342.155,374.878L342.155,378.779C342.155,385.957 347.227,389.858 354.249,389.858C361.114,389.858 366.108,386.191 368.838,383.227L369.853,389L377.343,389L377.343,363.019C377.343,352.799 372.427,349.678 362.987,349.678ZM351.596,376.049C351.596,373.474 352.532,371.914 355.653,371.758L367.824,371.758L367.824,377.687C363.845,380.964 359.554,382.212 356.589,382.212C353.156,382.212 351.596,380.808 351.596,377.531L351.596,376.049Z" style="fill:white;fill-rule:nonzero;"/>
                        <path d="M410.111,349.678C405.04,349.678 400.124,351.94 396.145,356.153C396.848,353.345 397.004,350.536 397.004,347.259L397.004,334.386L387.485,334.386L387.485,387.049C392.4,389 400.749,389.936 406.132,389.936C420.41,389.936 424.077,381.9 424.077,369.651C424.077,355.373 419.63,349.678 410.111,349.678ZM405.898,382.368C403.323,382.446 399.968,382.134 397.004,381.432L396.926,361.927C400.437,359.352 403.089,357.636 406.522,357.636C412.998,357.636 414.246,360.601 414.324,369.651C414.246,379.325 411.984,382.29 405.898,382.368Z" style="fill:white;fill-rule:nonzero;"/>
                    </g>
                </g>
            </g>
        </g>
        <path d="M0,413.386L826.772,413.386" style="fill:none;stroke:black;stroke-width:16.67px;stroke-linecap:square;"/>
    </g>
</svg>
